name Walk7.mot
datacolumns 19
datarows 27
range 0.82000000 0.84600000
endheader

                time	   L_ground_force_vx	   L_ground_force_vy	   L_ground_force_vz	   L_ground_force_px	   L_ground_force_py	   L_ground_force_pz	   R_ground_force_vx	   R_ground_force_vy	   R_ground_force_vz	   R_ground_force_px	   R_ground_force_py	   R_ground_force_pz	   L_ground_torque_x	   L_ground_torque_y	   L_ground_torque_z	   R_ground_torque_x	   R_ground_torque_y	   R_ground_torque_z	
          0.82000000	         -9.69179855	        118.91544745	         -8.30262910	          0.00005939	          0.00000000	          0.00061613	          0.00000001	         -0.00000007	         -0.00000000	         -0.00000000	          0.00000000	         -0.00000000	          0.00000000	          0.16892952	          0.00000000	          0.00000000	         -0.00000000	          0.00000000	
          0.82100000	        -10.96354243	        129.54447364	         -8.82978868	         -0.01577351	          0.00000000	          0.00003670	          0.00000001	         -0.00000007	         -0.00000000	         -0.00000000	          0.00000000	         -0.00000000	          0.00000000	          0.19963934	          0.00000000	          0.00000000	         -0.00000000	          0.00000000	
          0.82200000	        -12.26767854	        140.39829082	         -9.36891051	         -0.03155259	          0.00000000	         -0.00054087	          0.00000001	         -0.00000006	         -0.00000000	         -0.00000000	          0.00000000	         -0.00000000	          0.00000000	          0.23114568	          0.00000000	          0.00000000	         -0.00000000	          0.00000000	
          0.82300000	        -13.60257824	        151.45738010	         -9.91888492	         -0.04723135	          0.00000000	         -0.00111493	          0.00000001	         -0.00000005	         -0.00000000	         -0.00000000	          0.00000000	         -0.00000000	          0.00000000	          0.26341334	          0.00000000	          0.00000000	         -0.00000000	          0.00000000	
          0.82400000	        -14.96642548	        162.70004241	        -10.47845625	         -0.06276314	          0.00000000	         -0.00168383	          0.00000002	         -0.00000004	          0.00000000	          0.00000000	          0.00000000	          0.00000000	          0.00000000	          0.29640372	          0.00000000	          0.00000000	         -0.00000000	          0.00000000	
          0.82500000	        -16.35721552	        174.10229301	        -11.04621568	         -0.07810234	          0.00000000	         -0.00224599	          0.00000002	         -0.00000003	          0.00000000	          0.00000000	          0.00000000	          0.00000000	          0.00000000	          0.33007530	          0.00000000	          0.00000000	         -0.00000000	          0.00000000	
          0.82600000	        -17.77277265	        185.63785687	        -11.62059409	         -0.09320622	          0.00000000	         -0.00279993	          0.00000002	         -0.00000002	          0.00000000	          0.00000000	          0.00000000	          0.00000000	          0.00000000	          0.36438474	          0.00000000	          0.00000000	         -0.00000000	          0.00000000	
          0.82700000	        -19.21077808	        197.27829354	        -12.19985353	         -0.10803615	          0.00000000	         -0.00334433	          0.00000002	         -0.00000001	          0.00000000	          0.00000000	          0.00000000	          0.00000000	          0.00000000	          0.39928766	          0.00000000	          0.00000000	         -0.00000000	          0.00000000	
          0.82800000	        -20.66880434	        208.99327673	        -12.78207684	         -0.12255776	          0.00000000	         -0.00387806	          0.00000002	          0.00000001	          0.00000001	          0.00000000	          0.00000000	          0.00000000	          0.00000000	          0.43473871	          0.00000000	          0.00000000	         -0.00000000	          0.00000000	
          0.82900000	        -22.14436083	        220.75105607	        -13.36515763	         -0.13674074	          0.00000000	         -0.00440016	          0.00000002	          0.00000002	          0.00000001	          0.00000000	          0.00000000	          0.00000000	          0.00000000	          0.47069127	          0.00000000	          0.00000000	         -0.00000000	          0.00000000	
          0.83000000	        -23.63495113	        232.51909874	        -13.94679332	         -0.15055859	          0.00000000	         -0.00490982	          0.00000002	          0.00000004	          0.00000001	          0.00000000	          0.00000000	          0.00000000	          0.00000000	          0.50709738	          0.00000000	          0.00000000	         -0.00000000	          0.00000000	
          0.83100000	        -25.13813552	        244.26485961	        -14.52448441	         -0.16398842	          0.00000000	         -0.00540640	          0.00000002	          0.00000005	          0.00000001	          0.00000000	          0.00000000	          0.00000000	          0.00000000	          0.54390813	          0.00000000	          0.00000000	         -0.00000000	          0.00000000	
          0.83200000	        -26.65158885	        255.95658446	        -15.09554333	         -0.17701075	          0.00000000	         -0.00588939	          0.00000002	          0.00000007	          0.00000001	          0.00000000	          0.00000000	          0.00000000	          0.00000000	          0.58107454	          0.00000000	          0.00000000	         -0.00000000	          0.00000000	
          0.83300000	        -28.17314428	        267.56402986	        -15.65711486	         -0.18960926	          0.00000000	         -0.00635844	          0.00000002	          0.00000009	          0.00000002	          0.00000000	          0.00000000	          0.00000000	          0.00000000	          0.61854868	          0.00000000	          0.00000000	         -0.00000001	          0.00000000	
          0.83400000	        -29.70081746	        279.05900002	        -16.20620871	         -0.20177058	          0.00000000	         -0.00681332	          0.00000002	          0.00000011	          0.00000002	          0.00000000	          0.00000000	          0.00000000	          0.00000000	          0.65628469	          0.00000000	          0.00000000	         -0.00000001	          0.00000000	
          0.83500000	        -31.23281030	        290.41564667	        -16.73974177	         -0.21348414	          0.00000000	         -0.00725394	          0.00000002	          0.00000013	          0.00000002	          0.00000000	          0.00000000	          0.00000000	          0.00000000	          0.69423940	          0.00000000	          0.00000000	         -0.00000001	          0.00000000	
          0.83600000	        -32.76749733	        301.61053599	        -17.25458682	         -0.22474193	          0.00000000	         -0.00768030	          0.00000002	          0.00000016	          0.00000002	          0.00000000	          0.00000000	          0.00000000	          0.00000000	          0.73237229	          0.00000000	          0.00000000	         -0.00000001	          0.00000000	
          0.83700000	        -34.30339932	        312.62253220	        -17.74762351	         -0.23553833	          0.00000000	         -0.00809249	          0.00000002	          0.00000019	          0.00000003	          0.00000000	          0.00000000	          0.00000000	          0.00000000	          0.77064479	          0.00000000	          0.00000000	         -0.00000001	          0.00000000	
          0.83800000	        -35.83914913	        323.43257301	        -18.21578859	         -0.24586990	          0.00000000	         -0.00849070	          0.00000002	          0.00000021	          0.00000003	          0.00000000	          0.00000000	          0.00000000	          0.00000000	          0.80901892	          0.00000000	          0.00000000	         -0.00000001	          0.00000000	
          0.83900000	        -37.37345474	        334.02341363	        -18.65612315	         -0.25573525	          0.00000000	         -0.00887517	          0.00000002	          0.00000024	          0.00000003	          0.00000000	          0.00000000	          0.00000000	          0.00000000	          0.84745573	          0.00000000	          0.00000000	         -0.00000001	          0.00000000	
          0.84000000	        -38.90506410	        344.37940158	        -19.06581544	         -0.26513485	          0.00000000	         -0.00924620	          0.00000002	          0.00000027	          0.00000004	          0.00000000	          0.00000000	          0.00000000	          0.00000000	          0.88591391	          0.00000000	          0.00000000	         -0.00000001	          0.00000000	
          0.84100000	        -40.43273579	        354.48632040	        -19.44223793	         -0.27407086	          0.00000000	         -0.00960412	          0.00000002	          0.00000031	          0.00000004	          0.00000000	          0.00000000	          0.00000000	          0.00000000	          0.92434906	          0.00000000	          0.00000000	         -0.00000001	          0.00000000	
          0.84200000	        -41.95521836	        364.33131540	        -19.78297734	         -0.28254697	          0.00000000	         -0.00994931	          0.00000002	          0.00000034	          0.00000004	          0.00000000	          0.00000000	          0.00000000	          0.00000000	          0.96271374	          0.00000000	          0.00000000	         -0.00000001	          0.00000000	
          0.84300000	        -43.47123974	        373.90289468	        -20.08585626	         -0.29056827	          0.00000000	         -0.01028217	          0.00000002	          0.00000038	          0.00000005	          0.00000000	          0.00000000	          0.00000000	          0.00000000	          1.00095813	          0.00000000	          0.00000000	         -0.00000001	          0.00000000	
          0.84400000	        -44.97950676	        383.19098660	        -20.34894636	         -0.29814109	          0.00000000	         -0.01060314	          0.00000002	          0.00000042	          0.00000005	          0.00000000	          0.00000000	          0.00000000	          0.00000000	          1.03903093	          0.00000000	          0.00000000	         -0.00000001	          0.00000000	
          0.84500000	        -46.47871383	        392.18703055	        -20.57057362	         -0.30527289	          0.00000000	         -0.01091269	          0.00000002	          0.00000046	          0.00000006	          0.00000000	          0.00000000	          0.00000000	          0.00000000	          1.07688012	          0.00000000	          0.00000000	         -0.00000001	          0.00000000	
          0.84600000	        -47.96755974	        400.88407807	        -20.74931733	         -0.31197213	          0.00000000	         -0.01121132	          0.00000002	          0.00000050	          0.00000006	          0.00000000	          0.00000000	          0.00000000	          0.00000000	          1.11445344	          0.00000000	          0.00000000	         -0.00000001	          0.00000000	
